<svg xmlns="http://www.w3.org/2000/svg" viewBox="0 0 88.56 76.19"><defs><style>.cls-1{fill:none;stroke:#fff;stroke-miterlimit:10;stroke-width:2px;}.cls-2{fill:#fff;}</style></defs><title>Asset 9</title><g id="Layer_2" data-name="Layer 2"><g id="Layer_1-2" data-name="Layer 1"><circle class="cls-1" cx="45.7" cy="35.54" r="17.77"/><path class="cls-2" d="M13.21,62a7.19,7.19,0,0,0-5.68-2.16A6.79,6.79,0,0,0,2,62.33a9,9,0,0,0-2,5.85,8.54,8.54,0,0,0,2,5.66,6.82,6.82,0,0,0,5.6,2.35,10.41,10.41,0,0,0,2.56-.27L10,74.47a7.19,7.19,0,0,1-2.35.39A5.67,5.67,0,0,1,3,72.92a7.11,7.11,0,0,1-1.64-4.69,7.79,7.79,0,0,1,1.65-5,5.5,5.5,0,0,1,4.55-2.14A5.61,5.61,0,0,1,12.24,63a6.78,6.78,0,0,1,1.53,4.37,6.28,6.28,0,0,1-.56,2.77c-.37.78-.84,1.17-1.38,1.17a1.16,1.16,0,0,1-1.16-.57,4.33,4.33,0,0,1-.31-1.84c0-.53.23-2.14.68-4.84L10,64.21l-.15.52H9.73A1.7,1.7,0,0,0,8.1,64a3.42,3.42,0,0,0-3,1.6,6.18,6.18,0,0,0-1.07,3.58,4.38,4.38,0,0,0,.59,2.35,1.87,1.87,0,0,0,1.69.94c1.16,0,2.05-.71,2.68-2.13h.08a2,2,0,0,0,.62,1.55,2.24,2.24,0,0,0,1.57.56,3.29,3.29,0,0,0,2.83-1.59,6.57,6.57,0,0,0,1.06-3.77A7.52,7.52,0,0,0,13.21,62ZM8.57,69.71c-.56,1-1.15,1.52-1.78,1.52a1.12,1.12,0,0,1-1-.6,3.16,3.16,0,0,1-.37-1.56,5,5,0,0,1,.75-2.66,2.32,2.32,0,0,1,2.05-1.22,1.54,1.54,0,0,1,1.29.48,8.34,8.34,0,0,1-.91,4Z"/><path class="cls-2" d="M19.27,66.4q0-2.9.09-5.19H17.77q.14,2.2.15,5.19c0,2,0,3.93-.1,5.74h1.6c-.09-1.81-.14-3.72-.15-5.75Z"/><path class="cls-2" d="M27.27,64.13a13.78,13.78,0,0,1-1,3.32,18.47,18.47,0,0,0-1,3.09h-.07a18.32,18.32,0,0,0-1.11-3.2A18.83,18.83,0,0,1,23,64.15H21.32A28.93,28.93,0,0,0,22.84,68a20.05,20.05,0,0,1,1.51,4.1h1.13a22.64,22.64,0,0,1,1.67-4,24.47,24.47,0,0,0,1.68-4Z"/><path class="cls-2" d="M36.4,69.34q0-.34,0-1.38c0-.69,0-1.17,0-1.43a2.49,2.49,0,0,0-.82-2.11,3.76,3.76,0,0,0-2.31-.6,10.51,10.51,0,0,0-2.89.37l-.13,1.16A10.68,10.68,0,0,1,32.89,65a3.21,3.21,0,0,1,1.67.34,1.52,1.52,0,0,1,.56,1.37,3.28,3.28,0,0,1,0,.47,7.56,7.56,0,0,0-4,.84A2.43,2.43,0,0,0,30,70.12a2,2,0,0,0,.7,1.61,2.55,2.55,0,0,0,1.67.56,4,4,0,0,0,2.8-1h.08a3.25,3.25,0,0,0,.11.78l1.31-.06a15.54,15.54,0,0,1-.24-2.72ZM33,71.14q-1.61,0-1.62-1.14a1.65,1.65,0,0,1,1.37-1.61,9.48,9.48,0,0,1,2.4-.25c0,.68,0,1.45,0,2.3a3.35,3.35,0,0,1-2.2.7Z"/><path class="cls-2" d="M50.85,66.24c0-1.9,0-3.63.1-5.19h-1.6c.08,1.9.12,3.45.13,4.67l-5.06,0c0-1.51,0-3.06.08-4.67H42.91c.08,1.59.13,3.32.14,5.19S43,70,43,72h1.6c-.07-2.23-.11-4-.11-5.21l5,0c0,1.53,0,3.27-.06,5.21H51c-.09-1.74-.14-3.66-.15-5.75Z"/><path class="cls-2" d="M59.68,64.55a3.12,3.12,0,0,0-2.47-.94,3.37,3.37,0,0,0-2.79,1.33,4.88,4.88,0,0,0-1,3.16A4,4,0,0,0,54.55,71a4.33,4.33,0,0,0,3.33,1.18,6.61,6.61,0,0,0,2.37-.34l.13-1.18A8.66,8.66,0,0,1,58,71a3.21,3.21,0,0,1-2.3-.82,3.06,3.06,0,0,1-1-2L60.5,68c0-.41,0-.73,0-1A3.61,3.61,0,0,0,59.68,64.55Zm-4.89,2.6c.23-1.64,1-2.46,2.36-2.47s2,.78,2,2.35Z"/><path class="cls-2" d="M67.67,63.93a14.87,14.87,0,0,1-1,3.32,18.47,18.47,0,0,0-1,3.09h-.08a18.77,18.77,0,0,0-1.1-3.2A18.37,18.37,0,0,1,63.34,64H61.72a28.53,28.53,0,0,0,1.51,3.86,20.44,20.44,0,0,1,1.52,4.1h1.12a22.68,22.68,0,0,1,1.68-4,24.47,24.47,0,0,0,1.68-4Z"/><path class="cls-2" d="M76.74,64.47a3.12,3.12,0,0,0-2.47-.95,3.4,3.4,0,0,0-2.8,1.34,4.93,4.93,0,0,0-1,3.16,4,4,0,0,0,1.15,2.9,4.44,4.44,0,0,0,3.33,1.18,6.76,6.76,0,0,0,2.37-.34l.14-1.19a8.74,8.74,0,0,1-2.39.32,3.13,3.13,0,0,1-2.29-.81,3,3,0,0,1-1-2l5.76-.13c0-.41,0-.74,0-1A3.57,3.57,0,0,0,76.74,64.47Zm-4.89,2.59c.23-1.63,1-2.45,2.36-2.46s2,.78,2,2.35Z"/><path class="cls-2" d="M84,68a7.06,7.06,0,0,0-1.68-.87A6,6,0,0,1,81,66.4a.92.92,0,0,1-.36-.76c0-.62.53-.93,1.6-.94a5.71,5.71,0,0,1,2.1.35l.25-1.21a8.61,8.61,0,0,0-2.31-.23,3.07,3.07,0,0,0-2.2.7A2.2,2.2,0,0,0,79.32,66a2,2,0,0,0,.8,1.56,6.71,6.71,0,0,0,1.73.9,6.24,6.24,0,0,1,1.35.66.94.94,0,0,1,.41.8c0,.69-.61,1-1.82,1a6.56,6.56,0,0,1-2.37-.41l-.25,1.24a11.18,11.18,0,0,0,2.58.26c2.08,0,3.12-.83,3.11-2.47A2,2,0,0,0,84,68Z"/><path class="cls-2" d="M88.12,68c0-1.7,0-3.14.08-4.31l-1.67.24A24.09,24.09,0,0,1,86.84,68c0,1.44,0,2.72-.1,3.84h1.52c-.08-1.21-.13-2.49-.14-3.83Zm.2-7.31a.83.83,0,0,0-.65-.27,1,1,0,0,0-.79.32,1,1,0,0,0-.28.73,1,1,0,0,0,.24.66.85.85,0,0,0,.67.27,1,1,0,0,0,.78-.32,1.11,1.11,0,0,0,.27-.75A.94.94,0,0,0,88.32,60.66Z"/><rect class="cls-2" x="45.06" width="1.79" height="17.77"/></g></g></svg>